<svg width="61" height="54" viewBox="0 0 61 54" fill="none" xmlns="http://www.w3.org/2000/svg">
<g id="TULU PORSELEN YENI&#204;&#135;">
<g id="Group">
<g id="Group_2">
<rect id="Rectangle" width="8.8301" height="2.42859" fill="white"/>
<path id="Path" d="M10.521 18.1844H13.2864V2.42859H23.7799V0H10.521V18.1844Z" fill="white"/>
<path id="Path_2" d="M45.7864 0V10.9002C45.7864 14.7586 41.6796 16.4048 37.5194 16.4048C33.3592 16.4048 29.2524 14.7586 29.2524 10.9002V0H26.4887V11.3313C26.4887 17.0245 32.7427 18.6691 37.5194 18.6691C42.3511 18.6691 48.576 17.0229 48.576 11.3313V0H45.7864Z" fill="white"/>
<path id="Path_3" d="M13.2864 20.613H10.521V38.799H23.7799V36.3704H13.2864V20.613Z" fill="white"/>
<path id="Path_4" d="M45.7864 31.5132C45.7864 35.3717 41.6796 37.0178 37.5194 37.0178C33.3592 37.0178 29.2524 35.3717 29.2524 31.5132V20.613H26.4887V31.9443C26.4887 37.6376 32.7427 39.2821 37.5194 39.2821C42.3511 39.2821 48.576 37.636 48.576 31.9443V20.613H45.7848V31.5132H45.7864Z" fill="white"/>
</g>
<g id="Group_3">
<path id="Path_5" d="M51.2492 1.2085H52.6764V5.64926H53.8511V1.2085H55.2799V0.104004H51.2492V1.2085Z" fill="white"/>
<path id="Path_6" d="M60.0825 0L58.4741 1.49327L56.8641 0H55.9482V5.64937H57.123V1.73889L58.3544 2.832H58.5631L59.8155 1.71937V5.64937H61V0H60.0825Z" fill="white"/>
</g>
</g>
<rect id="Rectangle_2" x="6.52265" y="42.0767" width="46.055" height="11.9234" fill="white"/>
<g id="Group_4">
<path id="Shape" fill-rule="evenodd" clip-rule="evenodd" d="M11.2168 44.8958C10.5761 44.8958 10.0728 44.9511 9.68932 45.0145H9.6877V51.1388H10.4838V48.6566C10.6667 48.7021 10.8867 48.7119 11.1246 48.7119C11.9013 48.7119 12.5874 48.4809 13.0081 48.0303C13.3204 47.7082 13.4838 47.2674 13.4838 46.7062C13.4838 46.1548 13.2832 45.7042 12.945 45.4098C12.5793 45.0796 12.0032 44.8958 11.2168 44.8958ZM11.144 48.0677C10.8786 48.0677 10.6586 48.0482 10.4854 48.0027V45.5952C10.623 45.5578 10.8883 45.5301 11.2362 45.5301C12.1133 45.5301 12.6893 45.9254 12.6893 46.7436C12.6893 47.5992 12.1052 48.0677 11.144 48.0677Z" fill="#020203"/>
<path id="Shape_2" fill-rule="evenodd" clip-rule="evenodd" d="M16.5955 51.2396C18.1683 51.2396 19.4579 50.1091 19.4579 47.9749C19.4579 46.1351 18.3689 44.8387 16.6861 44.8403C15.0405 44.8403 13.8236 46.127 13.8236 48.0953C13.8236 49.9708 14.9676 51.2396 16.5955 51.2396ZM16.6392 50.5857C15.3867 50.5857 14.6731 49.3998 14.6731 48.0757C14.6731 46.7159 15.3333 45.4926 16.6489 45.4926C17.9741 45.4926 18.6149 46.7809 18.6149 48.0123C18.6149 49.4177 17.9013 50.5857 16.6392 50.5857Z" fill="#020203"/>
<path id="Shape_3" fill-rule="evenodd" clip-rule="evenodd" d="M21.6521 44.894C21.1036 44.894 20.5275 44.9396 20.1246 45.0225H20.123V51.1388H20.9191V48.4548H21.6699C22.3916 48.4808 22.7217 48.8029 22.9045 49.6585C23.0777 50.4312 23.2152 50.9647 23.3155 51.1388H24.1392C24.0113 50.8996 23.8641 50.3027 23.6634 49.4373C23.5162 48.7931 23.233 48.3507 22.7573 48.1864V48.1587C23.4078 47.9375 23.9191 47.3958 23.9191 46.5776C23.9191 46.0994 23.746 45.6748 23.4353 45.3999C23.0518 45.0502 22.5032 44.894 21.6521 44.894ZM21.7346 47.8464H20.9207V45.5837C21.0485 45.548 21.3236 45.5105 21.7071 45.5105C22.5485 45.5187 23.1246 45.8684 23.1246 46.6687C23.1246 47.3779 22.5858 47.8464 21.7346 47.8464Z" fill="#020203"/>
<path id="Path_7" d="M29.0162 50.9354C28.7233 51.0818 28.1375 51.2298 27.3883 51.2298C25.6505 51.2298 24.343 50.127 24.343 48.0953C24.343 46.1547 25.6505 44.8403 27.5631 44.8403C28.3317 44.8403 28.8155 45.0063 29.0259 45.1152L28.8349 45.7692C28.5324 45.6211 28.1036 45.5121 27.5906 45.5121C26.1456 45.5121 25.1845 46.441 25.1845 48.0676C25.1845 49.5837 26.0534 50.5596 27.5534 50.5596C28.0388 50.5596 28.5324 50.4588 28.8511 50.3026L29.0162 50.9354Z" fill="#020203"/>
<path id="Path_8" d="M32.8382 48.2319H30.4417V50.4669H33.1116V51.1387H29.6456V44.9412H32.9757V45.613H30.4417V47.5715H32.8382V48.2319Z" fill="#020203"/>
<path id="Path_9" d="M33.7799 44.9395H34.5761V50.4652H37.2104V51.137H33.7799V44.9395H33.7799Z" fill="#020203"/>
<path id="Shape_4" fill-rule="evenodd" clip-rule="evenodd" d="M38.0874 51.137L38.7282 49.1883H40.9126L41.5712 51.137H42.4223L40.3188 44.9395H39.3576L37.2638 51.137H38.0874ZM40.1456 46.7792L40.7492 48.562V48.5636H38.8932L39.4968 46.7711C39.6149 46.3937 39.7168 46.0163 39.8074 45.6487H39.8252C39.8316 45.6732 39.8379 45.6979 39.8443 45.7225C39.9303 46.0572 40.019 46.402 40.1456 46.7792Z" fill="#020203"/>
<path id="Path_10" d="M43.7573 44.9395V51.137H42.9612V44.9395H43.7573Z" fill="#020203"/>
<path id="Path_11" d="M44.7832 51.137V44.9395H45.6521L47.6278 48.0756C48.0858 48.8028 48.4417 49.455 48.7346 50.0894L48.7524 50.0797C48.6796 49.2517 48.6618 48.4986 48.6618 47.534V44.9411H49.4126V51.1386H48.6068L46.6489 47.9943C46.2201 47.3046 45.8074 46.597 45.4968 45.9252L45.4693 45.935C45.5146 46.7174 45.5324 47.4608 45.5324 48.4904V51.1386H44.7832V51.137Z" fill="#020203"/>
</g>
</g>
</svg>
